<svg width="196" height="41" viewBox="0 0 196 41" fill="none" xmlns="http://www.w3.org/2000/svg">
<g clip-path="url(#clip0_98_8505)">
<path d="M32.7487 37.4704C32.5628 39.316 31.1625 40.7103 29.3635 40.9916H15.8007C16.1239 40.6144 16.5226 40.3247 16.8576 39.961C17.0603 39.7404 17.9866 38.4555 18.0854 38.4252L29.01 38.4134C29.4774 38.4471 30.1943 37.7937 30.1943 37.3508V22.7439C30.5729 22.823 30.9531 22.887 31.335 22.9376C31.6683 22.9813 32.0636 23.0285 32.4958 23.0285C32.5879 23.0285 32.6801 23.0268 32.7722 23.0218C32.7722 27.8396 32.7203 32.6609 32.7471 37.4704H32.7487Z" fill="black"/>
<path d="M23.7353 20.1152H2.55946V22.7893C1.63149 23.4764 0.768844 24.2106 0 25.0779V13.9972C0.184255 13.0087 0.60134 12.1347 1.37521 11.483C1.82245 11.1041 2.8459 10.5821 3.42379 10.5821H5.37353V8.00562H7.933V10.5821H16.3149C16.3132 11.4578 16.6181 12.3217 17.0637 13.1603H7.933V15.7368H5.37353V13.1603H3.61474C3.23618 13.1603 2.55946 13.8389 2.55946 14.2229V17.5387H20.4405C21.4422 18.5086 22.5494 19.3742 23.7337 20.1152H23.7353Z" fill="black"/>
<path d="M15.2245 26.6575C10.2546 20.7703 0.658325 23.9312 0.0603355 31.5461L0.00170898 31.6489V32.9371C0.107237 33.2571 0.0938363 33.6343 0.159163 33.9711C0.809079 37.3778 3.62817 40.222 7.02516 40.8434C7.34007 40.9007 7.70188 40.8822 8.00003 40.9899C8.41879 40.9664 8.86603 41.0219 9.27977 40.9899C16.2379 40.4612 19.7957 32.0682 15.2278 26.6575H15.2245ZM13.6148 35.7915C11.1089 39.4373 5.62985 39.2217 3.40372 35.4042C0.892831 31.0982 4.31494 25.7111 9.22617 26.1911C13.8275 26.6407 16.258 31.9452 13.6148 35.7915Z" fill="black"/>
<path d="M27.8944 22.823H25.335V25.3995H27.8944V22.823Z" fill="black"/>
<path d="M22.7755 22.823H20.2161V25.3995H22.7755V22.823Z" fill="black"/>
<path d="M17.6583 22.823H15.0989V25.3995H17.6583V22.823Z" fill="black"/>
<path d="M27.8944 27.9761H25.335V30.5526H27.8944V27.9761Z" fill="black"/>
<path d="M22.7755 27.9761H20.2161V30.5526H22.7755V27.9761Z" fill="black"/>
<path d="M27.8944 33.1289H25.335V35.7054H27.8944V33.1289Z" fill="black"/>
<path d="M22.7755 33.1289H20.2161V35.7054H22.7755V33.1289Z" fill="black"/>
<path d="M9.72865 28.0569H7.16919V33.6612H11.9045V31.0847H9.72865V28.0569Z" fill="black"/>
<path d="M42.9681 16.0046L34.0134 3.88325C29.5578 2.68762 25.0619 1.33874 20.5527 0.303092C20.2093 0.223945 19.4774 -0.00170898 18.9698 -0.00170898C18.7856 -0.00170898 18.6298 0.0286028 18.5326 0.104382C18.3735 0.230681 18.2981 0.710617 18.3869 0.904275C20.7671 4.07354 23.0552 7.27985 25.4271 10.439C25.8777 11.0385 27.0033 12.7259 27.4891 13.1014C27.6549 13.2294 27.8358 13.3203 28.0318 13.391L39.2546 16.2117L39.3333 16.2319L39.3501 21.8025C38.4472 22.1478 38.0234 22.9881 38.201 23.9277C38.2378 24.1248 38.4238 24.3437 38.4254 24.4767C38.4254 24.5474 38.2663 24.8 38.2362 24.9314C38.1524 25.3103 37.5728 27.3799 37.6097 27.5062C37.8308 28.2455 38.8274 27.5062 39.2412 27.4237C39.4606 27.3799 39.9045 27.4035 40.1306 27.4388C40.6733 27.5247 41.6767 28.2539 41.9514 27.5315C42.0335 27.3159 41.0837 24.9078 40.9882 24.4969C41.3651 23.6516 41.3467 22.498 40.4321 22.0029L40.4221 16.5115L40.7504 16.5973L40.8241 16.6159C41.2965 16.7405 41.9279 17.0032 42.3886 17.0032C42.8174 17.0032 43.0988 16.7758 42.9665 16.0012L42.9681 16.0046ZM27.4723 9.9136C27.283 9.64584 27.1155 9.41177 26.9949 9.25179C25.8207 7.68737 24.6432 6.08085 23.5058 4.52653C23.0703 3.93208 22.6281 3.32921 22.1842 2.72298C24.5829 3.32079 26.9949 3.99102 29.345 4.64609C30.4941 4.96605 31.675 5.29443 32.8475 5.6127L39.1608 14.1572L38.8743 14.0848L31.6951 8.30539C31.4589 8.1151 31.1155 8.15383 30.9263 8.39128C30.737 8.62872 30.7755 8.97393 31.0117 9.16422L36.3316 13.4466L28.6817 11.5235C28.397 11.212 27.7588 10.3144 27.474 9.91528L27.4723 9.9136Z" fill="black"/>
<path d="M27.6114 14.2228C26.4808 13.7883 25.124 11.4291 24.3518 10.4035C23.5109 9.28534 22.66 8.17897 21.8024 7.06922C21.7371 6.98334 21.454 6.45456 21.3501 6.45288C21.2429 6.54045 21.1609 6.64654 21.0754 6.756C20.7052 7.23088 18.8443 9.99767 18.7756 10.4001C18.6332 11.2405 19.5411 12.5826 20.0235 13.2831C22.6198 17.0502 27.1073 19.8742 31.66 20.4906C32.3669 20.5866 33.0888 20.6421 33.7119 20.2397L36.2044 16.4995L36.0922 16.3682L27.6064 14.2211L27.6114 14.2228Z" fill="black"/>
</g>
<path d="M65.7841 33H59.081V14.0909H65.8395C67.7415 14.0909 69.3788 14.4695 70.7514 15.2266C72.1241 15.9775 73.1797 17.0578 73.9183 18.4673C74.6631 19.8769 75.0355 21.5634 75.0355 23.527C75.0355 25.4967 74.6631 27.1894 73.9183 28.6051C73.1797 30.0208 72.1179 31.1072 70.733 31.8643C69.3542 32.6214 67.7045 33 65.7841 33ZM63.0788 29.5746H65.6179C66.7997 29.5746 67.7938 29.3653 68.6001 28.9467C69.4126 28.522 70.022 27.8665 70.4283 26.9801C70.8407 26.0876 71.0469 24.9366 71.0469 23.527C71.0469 22.1297 70.8407 20.9879 70.4283 20.1016C70.022 19.2152 69.4157 18.5627 68.6094 18.1442C67.803 17.7256 66.8089 17.5163 65.6271 17.5163H63.0788V29.5746ZM81.9949 14.0909V33H77.997V14.0909H81.9949ZM96.9638 14.0909H100.962V26.3707C100.962 27.7495 100.632 28.956 99.9737 29.9901C99.3213 31.0241 98.4072 31.8305 97.2315 32.4091C96.0559 32.9815 94.6863 33.2678 93.1229 33.2678C91.5533 33.2678 90.1806 32.9815 89.005 32.4091C87.8293 31.8305 86.9152 31.0241 86.2628 29.9901C85.6103 28.956 85.2841 27.7495 85.2841 26.3707V14.0909H89.282V26.0291C89.282 26.7493 89.4389 27.3894 89.7528 27.9496C90.0729 28.5097 90.5223 28.9498 91.1009 29.2699C91.6795 29.59 92.3535 29.75 93.1229 29.75C93.8984 29.75 94.5724 29.59 95.1449 29.2699C95.7235 28.9498 96.1697 28.5097 96.4837 27.9496C96.8037 27.3894 96.9638 26.7493 96.9638 26.0291V14.0909ZM110.268 33V14.0909H123.01V17.3871H114.266V21.8928H122.354V25.1889H114.266V29.7038H123.047V33H110.268ZM139.336 18.8182L134.378 33H129.946L124.988 18.8182H129.143L132.088 28.9652H132.236L135.172 18.8182H139.336ZM147.355 33.277C145.896 33.277 144.64 32.9815 143.588 32.3906C142.541 31.7936 141.735 30.9503 141.169 29.8608C140.603 28.7652 140.319 27.4695 140.319 25.9737C140.319 24.5149 140.603 23.2346 141.169 22.1328C141.735 21.031 142.532 20.1723 143.56 19.5568C144.594 18.9413 145.807 18.6335 147.198 18.6335C148.134 18.6335 149.005 18.7843 149.811 19.0859C150.623 19.3814 151.331 19.8277 151.934 20.4247C152.544 21.0218 153.018 21.7727 153.356 22.6776C153.695 23.5762 153.864 24.6288 153.864 25.8352V26.9155H141.889V24.478H150.162C150.162 23.9117 150.039 23.41 149.792 22.973C149.546 22.536 149.205 22.1944 148.768 21.9482C148.337 21.6958 147.835 21.5696 147.263 21.5696C146.666 21.5696 146.136 21.7081 145.675 21.9851C145.219 22.2559 144.862 22.6222 144.604 23.0838C144.345 23.5393 144.213 24.0471 144.206 24.6072V26.9247C144.206 27.6264 144.336 28.2327 144.594 28.7436C144.859 29.2545 145.231 29.6484 145.711 29.9254C146.192 30.2024 146.761 30.3409 147.42 30.3409C147.857 30.3409 148.257 30.2794 148.62 30.1562C148.983 30.0331 149.294 29.8485 149.552 29.6023C149.811 29.3561 150.008 29.0545 150.143 28.6974L153.781 28.9375C153.596 29.8116 153.218 30.5748 152.645 31.2273C152.079 31.8736 151.347 32.3783 150.448 32.7415C149.555 33.0985 148.524 33.277 147.355 33.277ZM160.364 24.8011V33H156.431V18.8182H160.18V21.3203H160.346C160.66 20.4955 161.186 19.843 161.925 19.3629C162.663 18.8767 163.559 18.6335 164.611 18.6335C165.596 18.6335 166.455 18.849 167.187 19.2798C167.92 19.7107 168.489 20.3262 168.895 21.1264C169.302 21.9205 169.505 22.8684 169.505 23.9702V33H165.572V24.6719C165.578 23.804 165.356 23.1269 164.907 22.6406C164.457 22.1482 163.839 21.902 163.051 21.902C162.522 21.902 162.054 22.0159 161.648 22.2436C161.247 22.4714 160.934 22.8037 160.706 23.2408C160.484 23.6716 160.37 24.1918 160.364 24.8011ZM180.148 18.8182V21.7727H171.608V18.8182H180.148ZM173.547 15.4205H177.48V28.642C177.48 29.0052 177.535 29.2884 177.646 29.4915C177.757 29.6884 177.911 29.8269 178.108 29.907C178.311 29.987 178.545 30.027 178.809 30.027C178.994 30.027 179.179 30.0116 179.363 29.9808C179.548 29.9439 179.69 29.9162 179.788 29.8977L180.407 32.8246C180.21 32.8861 179.933 32.9569 179.576 33.0369C179.219 33.1231 178.785 33.1754 178.274 33.1939C177.326 33.2308 176.495 33.1046 175.781 32.8153C175.073 32.526 174.522 32.0767 174.128 31.4673C173.734 30.858 173.54 30.0885 173.547 29.1591V15.4205ZM194.332 22.8622L190.731 23.0838C190.67 22.776 190.537 22.4991 190.334 22.2528C190.131 22.0005 189.863 21.8004 189.531 21.6527C189.205 21.4988 188.814 21.4219 188.358 21.4219C187.749 21.4219 187.235 21.5511 186.817 21.8097C186.398 22.062 186.189 22.4006 186.189 22.8253C186.189 23.1638 186.324 23.45 186.595 23.6839C186.866 23.9179 187.331 24.1056 187.989 24.2472L190.556 24.7642C191.935 25.0473 192.963 25.5028 193.64 26.1307C194.317 26.7585 194.655 27.5833 194.655 28.6051C194.655 29.5346 194.381 30.3501 193.834 31.0518C193.292 31.7536 192.547 32.3014 191.599 32.6953C190.657 33.0831 189.571 33.277 188.34 33.277C186.463 33.277 184.967 32.8861 183.853 32.1044C182.745 31.3165 182.095 30.2455 181.905 28.8913L185.773 28.6882C185.89 29.2607 186.173 29.6977 186.623 29.9993C187.072 30.2947 187.648 30.4425 188.349 30.4425C189.039 30.4425 189.593 30.3101 190.011 30.0455C190.436 29.7746 190.651 29.4268 190.657 29.0021C190.651 28.6451 190.501 28.3527 190.205 28.125C189.91 27.8911 189.454 27.7126 188.839 27.5895L186.383 27.1001C184.998 26.8232 183.967 26.343 183.29 25.6598C182.619 24.9766 182.283 24.1056 182.283 23.0469C182.283 22.1359 182.529 21.3511 183.022 20.6925C183.52 20.0339 184.219 19.526 185.118 19.169C186.023 18.812 187.081 18.6335 188.294 18.6335C190.085 18.6335 191.495 19.0121 192.523 19.7692C193.557 20.5263 194.16 21.5573 194.332 22.8622Z" fill="black"/>
<defs>
<clipPath id="clip0_98_8505">
<rect width="43" height="41" fill="white"/>
</clipPath>
</defs>
</svg>
